<?xml version="1.0" encoding="iso-8859-1"?>
<!-- Generator: Adobe Illustrator 16.0.0, SVG Export Plug-In . SVG Version: 6.00 Build 0)  -->
<!DOCTYPE svg PUBLIC "-//W3C//DTD SVG 1.1//EN" "http://www.w3.org/Graphics/SVG/1.1/DTD/svg11.dtd">
<svg version="1.1" id="Capa_1" xmlns="http://www.w3.org/2000/svg" xmlns:xlink="http://www.w3.org/1999/xlink" x="0px" y="0px"
	 width="441.629px" height="441.629px" viewBox="0 0 441.629 441.629" style="enable-background:new 0 0 441.629 441.629;"
	 xml:space="preserve">
<g>
	<path d="M160.628,228.557c29.312-24.591,40.272-47.377,40.272-83.081c0-24.436-8.848-45.688-24.852-59.814
		C156.591,68.062,129.07,60.21,86.785,60.21l-74.047,0.242c-2.27,0.006-4.105,1.847-4.105,4.117v300.858
		c0,2.275,1.841,4.114,4.123,4.114h38.574c2.276,0,4.117-1.839,4.117-4.114V240.06h62.293l45.903,126.774
		c0.591,1.631,2.137,2.719,3.872,2.719h39.913c1.356,0,2.615-0.662,3.39-1.773c0.763-1.105,0.937-2.518,0.473-3.783L160.628,228.557
		z M90.792,202.556H55.439V98.192l34.008-0.039c29.489,0.328,64.631,9.57,64.631,51.757
		C154.084,181.892,129.245,202.556,90.792,202.556z M427.706,247.555c-3.476-9.422-8.754-17.414-15.688-23.765
		c-7.022-6.434-15.947-11.984-26.527-16.506c-9.428-4.02-20.511-7.977-32.853-11.815V104.6c20.724,5.042,32.061,18.654,33.709,40.71
		h0.054l0.142,2.471c0.384,10.265,8.736,18.309,19.045,18.309c11,0,19.387-8.177,19.505-19.018l-0.39-3.443
		c-2.767-45.116-26.433-70.107-72.053-76.057V18.557C352.65,8.322,344.316,0,334.091,0c-10.237,0-18.565,8.322-18.565,18.557v48.513
		c-8.146,0.987-15.835,2.754-22.881,5.47c-10.982,4.238-20.48,10.125-28.194,17.522c-7.707,7.379-13.689,16.193-17.762,26.214
		c-4.084,10.054-6.165,21.329-6.165,33.52c0,13.521,1.578,24.894,4.651,33.786c3.033,8.769,7.867,16.299,14.352,22.363
		c6.573,6.156,15.008,11.47,25.08,15.8c8.718,3.756,19.162,7.456,30.919,11.044v103.285c-26.593-5.758-40.619-23.389-41.725-52.665
		l-0.012-2.501c0-10.468-8.57-18.99-19.115-18.99c-11.183,0-19.382,8.003-19.493,19.021c2.754,56.259,29.116,86.841,80.339,93.236
		v48.894c0,10.237,8.328,18.561,18.56,18.561c10.237,0,18.56-8.323,18.56-18.561v-48.669c8.854-1.129,17.136-3.145,24.63-6.254
		c11.733-4.858,21.853-11.538,30.104-19.83c8.24-8.281,14.636-18.116,19.01-29.241c4.397-11.142,6.614-23.348,6.614-36.28
		C432.996,268.939,431.217,257.082,427.706,247.555z M309.993,182.036c-9.298-3.218-16.036-6.425-20.6-9.809
		c-4.764-3.529-7.731-7.501-8.854-11.81c-1.005-3.922-1.524-9.073-1.524-15.282c0-7.138,1.442-13.515,4.303-18.982
		c2.849-5.453,6.821-9.992,11.804-13.491c4.9-3.443,10.634-6.059,17.047-7.764c1.1-0.298,2.229-0.535,3.346-0.774v79.783
		C313.557,183.248,311.701,182.625,309.993,182.036z M380.254,324.602c-6.667,6.377-15.959,10.468-27.615,12.359V244.93
		c1.88,0.662,3.771,1.324,5.456,1.934c9.498,3.422,16.981,6.98,22.26,10.551c5.521,3.735,9.327,8.086,11.289,12.914
		c1.897,4.676,2.855,10.421,2.855,17.112C394.499,303.068,389.711,315.563,380.254,324.602z"/>
</g>
<g>
</g>
<g>
</g>
<g>
</g>
<g>
</g>
<g>
</g>
<g>
</g>
<g>
</g>
<g>
</g>
<g>
</g>
<g>
</g>
<g>
</g>
<g>
</g>
<g>
</g>
<g>
</g>
<g>
</g>
</svg>
